<svg id="logosandtypes_com" xmlns="http://www.w3.org/2000/svg" viewBox="0 0 150 150.2"><style>.st1{fill:#ee3124}</style><g id="Layer_2"><path id="Layer_3" d="M0 .2h150v150H0V.2z" fill="none"/></g><g id="firestone"><path class="st1" d="M75.4 130.6c-61.4-35.7-54.5-99-54.5-99 58.9-31.3 109.2.3 109.2.3 3.3 69.4-54.7 98.7-54.7 98.7m60.5-102.3s-55-37.1-120.9 0c0 0-9.4 71.1 60.6 109-.2-.1 65.9-30.8 60.3-109"/><path class="st1" d="M80.3 53.2s-3.9 9.7-.8 14.9c0 0 11.1-6.4 21.8-2.8l-6.6 16s-5.3-3.6-10.5-.6c0 0 4.1 12.7-5.3 22.4s-18.5 9.1-21.6 8c0 0 4.1-6.4 4.4-12.2s-1.4-10.2-1.4-10.2-3-6.1-3.3-14.9c-.3-9.1 5.5-19.9 7.7-22.4 0 0-10-2.8-24.6 6.4 0 0-2.5-11.1 7.2-21.3 10-10.5 24.3-6.9 24.3-6.9L88.1 33s11.1 1.9 15.5.3c4.1-1.7 7.7-3.9 10-5.5 0 0 1.4 6.9-.6 12.4-1.4 4.1-4.4 7.5-10.2 10.8-6.1 3.5-14.7 3.5-22.5 2.2"/></g></svg>